<svg width="56" height="56" viewBox="0 0 56 56" fill="none" xmlns="http://www.w3.org/2000/svg">
<g filter="url(#filter0_bd_147_801)">
<rect x="12" y="12" width="32" height="32" rx="12" fill="url(#paint0_linear_147_801)"/>
</g>
<g opacity="0.6">
<path d="M34.3533 26.3875H29C28.5692 26.3875 28.2117 26.0392 28.2117 25.5992V20.2459C28.2117 19.815 28.56 19.4575 29 19.4575H34.3533C34.7842 19.4575 35.1417 19.8059 35.1417 20.2459V25.5992C35.1417 26.0392 34.7842 26.3875 34.3533 26.3875Z" fill="white"/>
</g>
<g opacity="0.6">
<path d="M25.5351 35.215H20.1726C19.7418 35.215 19.3843 34.8667 19.3843 34.4267V29.0734C19.3843 28.6425 19.7326 28.285 20.1726 28.285H25.5259C25.9568 28.285 26.3143 28.6334 26.3143 29.0734V34.4267C26.3143 34.8575 25.9659 35.215 25.5351 35.215Z" fill="white"/>
</g>
<g opacity="0.8">
<path d="M22.8584 26.6625C20.7959 26.6625 19.1184 24.985 19.1184 22.9225C19.1184 20.86 20.7959 19.1825 22.8584 19.1825C24.9209 19.1825 26.5984 20.86 26.5984 22.9225C26.5984 24.985 24.9209 26.6625 22.8584 26.6625Z" fill="white"/>
</g>
<path d="M31.0808 30.1825C30.815 29.9167 30.375 29.9167 30.1091 30.1825C29.2475 31.0442 29.2475 32.4467 30.1091 33.3084C30.2466 33.4459 30.4208 33.51 30.595 33.51C30.7691 33.51 30.9433 33.4459 31.0808 33.3084C31.3466 33.0425 31.3466 32.6025 31.0808 32.3367C30.7508 32.0067 30.7508 31.4842 31.0808 31.1542C31.3558 30.8884 31.3558 30.4575 31.0808 30.1825Z" fill="white"/>
<path d="M38.2768 35.9667L35.8751 33.565C36.5718 31.9333 36.2693 29.9717 34.9401 28.6425C34.0693 27.7717 32.9234 27.3317 31.7776 27.3317C30.6318 27.3317 29.4859 27.7717 28.6151 28.6425C26.8734 30.3842 26.8734 33.2167 28.6151 34.9675C29.4859 35.8383 30.6318 36.2783 31.7776 36.2783C32.3826 36.2783 32.9784 36.15 33.5376 35.9117L35.9393 38.3133C36.2051 38.5792 36.5626 38.7167 36.9109 38.7167C37.2593 38.7167 37.6168 38.5792 37.8826 38.3133L38.2768 37.9192C38.8084 37.3692 38.8084 36.5075 38.2768 35.9667ZM29.5868 33.9867C29.0001 33.4 28.6793 32.6208 28.6793 31.7958C28.6793 30.9708 29.0001 30.1917 29.5868 29.605C30.1734 29.0183 30.9526 28.6975 31.7776 28.6975C32.6026 28.6975 33.3818 29.0183 33.9684 29.605C34.5551 30.1917 34.8759 30.9708 34.8759 31.7958C34.8759 32.6208 34.5551 33.4 33.9684 33.9867C33.3818 34.5733 32.6026 34.8942 31.7776 34.8942C30.9434 34.8942 30.1643 34.5733 29.5868 33.9867ZM36.9109 37.3325L34.9676 35.3892L35.3618 34.995L37.3051 36.9383L36.9109 37.3325Z" fill="white"/>
<defs>
<filter id="filter0_bd_147_801" x="0" y="0" width="56" height="56" filterUnits="userSpaceOnUse" color-interpolation-filters="sRGB">
<feFlood flood-opacity="0" result="BackgroundImageFix"/>
<feGaussianBlur in="BackgroundImageFix" stdDeviation="4"/>
<feComposite in2="SourceAlpha" operator="in" result="effect1_backgroundBlur_147_801"/>
<feColorMatrix in="SourceAlpha" type="matrix" values="0 0 0 0 0 0 0 0 0 0 0 0 0 0 0 0 0 0 127 0" result="hardAlpha"/>
<feOffset/>
<feGaussianBlur stdDeviation="6"/>
<feComposite in2="hardAlpha" operator="out"/>
<feColorMatrix type="matrix" values="0 0 0 0 0 0 0 0 0 0 0 0 0 0 0 0 0 0 0.2 0"/>
<feBlend mode="normal" in2="effect1_backgroundBlur_147_801" result="effect2_dropShadow_147_801"/>
<feBlend mode="normal" in="SourceGraphic" in2="effect2_dropShadow_147_801" result="shape"/>
</filter>
<linearGradient id="paint0_linear_147_801" x1="44" y1="12" x2="11.9583" y2="12.0417" gradientUnits="userSpaceOnUse">
<stop stop-color="#00C3CC"/>
<stop offset="1" stop-color="#438DFF"/>
</linearGradient>
</defs>
</svg>