<svg width="20" height="20" viewBox="0 0 20 20" fill="none" xmlns="http://www.w3.org/2000/svg">
    <path fill-rule="evenodd" clip-rule="evenodd" d="M12.3369 0.274543L8.3649 5.94687C8.35603 5.95941 8.34973 5.97358 8.34634 5.98857C8.34296 6.00355 8.34257 6.01906 8.34519 6.0342C8.34782 6.04933 8.3534 6.0638 8.36163 6.07678C8.36985 6.08975 8.38056 6.10098 8.39313 6.10981L14.9237 10.6825C14.9363 10.6914 14.9505 10.6977 14.9656 10.7011C14.9807 10.7045 14.9963 10.7049 15.0115 10.7022C15.0267 10.6995 15.0412 10.6938 15.0542 10.6855C15.0672 10.6771 15.0785 10.6663 15.0872 10.6536L18.8319 5.30558C19.5775 6.70538 20 8.30334 20 10C20 15.5228 15.5228 20 10 20C4.47715 20 0 15.5228 0 10C0 4.47715 4.47715 0 10 0C10.8047 0 11.5872 0.0950528 12.3369 0.274543ZM11.0894 12.9284L14.4605 11.4131C14.5214 11.3856 14.5291 11.3028 14.4746 11.2643L7.99988 6.73143C7.98744 6.7228 7.97294 6.7176 7.95785 6.71638C7.94275 6.71515 7.9276 6.71794 7.91393 6.72445C7.90026 6.73096 7.88855 6.74096 7.87998 6.75346C7.87142 6.76595 7.86631 6.78048 7.86517 6.79558L7.59445 10.481L7.03763 11.2662C7.02465 11.285 7.01959 11.3081 7.02355 11.3306C7.02752 11.353 7.04018 11.373 7.05879 11.3862L10.4177 13.7386C10.427 13.7451 10.4374 13.7497 10.4485 13.7522C10.4595 13.7546 10.471 13.7549 10.4821 13.7529C10.4932 13.751 10.5039 13.7468 10.5134 13.7407C10.523 13.7346 10.5312 13.7267 10.5377 13.7174L11.0894 12.9284ZM9.68384 14.2261L9.17256 14.9575C9.1469 14.9876 9.10392 14.9979 9.06799 14.9979L5.05858 14.9998C5.0459 14.9955 5.03439 14.9884 5.02497 14.9789C5.01554 14.9694 5.00846 14.9578 5.00429 14.9451C5.00012 14.9324 4.99897 14.9189 5.00093 14.9057C5.00289 14.8925 5.00792 14.8799 5.0156 14.8689L6.85544 12.2458C6.86191 12.2365 6.87015 12.2286 6.87969 12.2225C6.88923 12.2164 6.89988 12.2123 6.91102 12.2103C6.92217 12.2083 6.93359 12.2086 6.94464 12.2111C6.95569 12.2135 6.96614 12.2181 6.9754 12.2246L9.66331 14.1068C9.7018 14.1338 9.71078 14.1876 9.68384 14.2261Z" fill="#00C3CC"/>
  </svg>